<?xml version="1.0" encoding="UTF-8"?>
<svg width="194px" height="194px" viewBox="0 0 194 194" version="1.1" xmlns="http://www.w3.org/2000/svg" xmlns:xlink="http://www.w3.org/1999/xlink">
    <title>1</title>
    <g id="WIRES-V9" stroke="none" stroke-width="1" fill="none" fill-rule="evenodd">
        <g id="1" transform="translate(0.280000, 0.280000)">
            <circle id="Oval" fill="#FFE6E6" fill-rule="nonzero" cx="96.0799996" cy="96.72" r="96"></circle>
            <path d="M96.0799996,150.879999 C125.240634,150.879999 148.879999,127.240634 148.879999,98.0799996 C148.879999,68.919365 125.240634,45.2799999 96.0799996,45.2799999 C66.919365,45.2799999 43.2799999,68.919365 43.2799999,98.0799996 C43.2799999,127.240634 66.919365,150.879999 96.0799996,150.879999 Z" id="Oval" stroke="#EB0C27" stroke-width="9.38666662" stroke-linecap="round" stroke-dasharray="55.24639862642289,191.2548048718691" transform="translate(96.080000, 98.080000) rotate(-53.000000) translate(-96.080000, -98.080000) "></path>
            <path d="M96.0799996,150.879999 C125.240634,150.879999 148.879999,127.240634 148.879999,98.0799996 C148.879999,68.919365 125.240634,45.2799999 96.0799996,45.2799999 C66.919365,45.2799999 43.2799999,68.919365 43.2799999,98.0799996 C43.2799999,127.240634 66.919365,150.879999 96.0799996,150.879999 Z" id="Oval" stroke="#EB0C27" stroke-width="9.38666662" stroke-dasharray="61.69680020279884,176.2463979707718" transform="translate(96.080000, 98.080000) rotate(-113.000000) translate(-96.080000, -98.080000) "></path>
            <circle id="Oval" stroke="#EB0C27" stroke-width="2" stroke-linecap="round" transform="translate(96.080000, 98.080000) rotate(-88.000000) translate(-96.080000, -98.080000) " cx="96.0799996" cy="98.0799996" r="56.5"></circle>
            <circle id="Oval" stroke="#EB0C27" stroke-width="2" stroke-linecap="round" transform="translate(96.080000, 98.080000) rotate(-88.000000) translate(-96.080000, -98.080000) " cx="96.0799996" cy="98.0799996" r="49"></circle>
            <text id="%" font-family="SFProDisplay-Heavy, SF Pro Display" font-size="42" font-weight="600" fill="#EB0C27">
                <tspan x="76.72" y="111.72">%</tspan>
            </text>
        </g>
    </g>
</svg>