<?xml version="1.0" encoding="UTF-8"?>
<svg width="194px" height="192px" viewBox="0 0 194 192" version="1.1" xmlns="http://www.w3.org/2000/svg" xmlns:xlink="http://www.w3.org/1999/xlink">
    <title>2</title>
    <g id="WIRES-V9" stroke="none" stroke-width="1" fill="none" fill-rule="evenodd">
        <g id="2" transform="translate(0.750000, 0.000000)">
            <g fill-rule="nonzero">
                <circle id="Oval" fill="#FFF2E5" cx="96.53" cy="96" r="96"></circle>
                <path d="M133.848559,63.2141215 L119.456892,71.5557881 L119.456892,64.2224548 C119.456892,60.7391215 116.615225,57.8974548 113.131892,57.8974548 L64.4568921,57.8974548 C60.8818921,57.8057881 58.0402255,60.6474548 58.0402255,64.1307881 L58.0402255,101.805788 C58.0402255,105.289121 60.8818921,108.130788 64.3652255,108.130788 L79.5818921,108.130788 L69.7735588,136.364121 C68.5818921,139.755788 70.4152255,143.422455 73.7152255,144.522455 C77.1068921,145.714121 80.7735588,143.972455 81.8735588,140.580788 L88.6568921,121.147455 L95.4402255,140.580788 C96.3568921,143.239121 98.8318921,144.889121 101.490225,144.889121 C102.223559,144.889121 102.865225,144.797455 103.598559,144.522455 C106.990225,143.330788 108.731892,139.664121 107.540225,136.364121 L97.8235588,108.222455 L113.040225,108.222455 C116.523559,108.222455 119.365225,105.380788 119.365225,101.897455 L119.365225,94.5641215 L133.756892,102.905788 C136.781892,104.647455 140.448559,102.447455 140.448559,99.0557881 L140.448559,67.0641215 C140.540225,63.6724548 136.781892,61.4724548 133.848559,63.2141215 Z" id="Shape" stroke="#FF8821" stroke-width="4"></path>
            </g>
            <g id="noun_Video_2073188" transform="translate(57.290225, 57.895298)"></g>
        </g>
    </g>
</svg>