<?xml version="1.0" encoding="UTF-8"?>
<svg width="193px" height="193px" viewBox="0 0 193 193" version="1.1" xmlns="http://www.w3.org/2000/svg" xmlns:xlink="http://www.w3.org/1999/xlink">
    <title>3</title>
    <g id="WIRES-V9" stroke="none" stroke-width="1" fill="none" fill-rule="evenodd">
        <g id="3" transform="translate(0.000000, 0.500000)">
            <g fill-rule="nonzero">
                <circle id="Oval" fill="#FFF9DD" cx="96.28" cy="96" r="96"></circle>
                <path d="M124.940348,140.67 L64.1803476,140.67 C63.6280629,140.67 63.1803476,140.222285 63.1803476,139.67 L63.1803476,56 C63.1803476,55.4477153 63.6280629,55 64.1803476,55 L124.940348,55 C125.492632,55 125.940348,55.4477153 125.940348,56 L125.940348,76.68 C125.940348,77.2322847 125.492632,77.68 124.940348,77.68 C124.388063,77.68 123.940348,77.2322847 123.940348,76.68 L123.940348,57 L65.1803476,57 L65.1803476,138.67 L123.940348,138.67 L123.940348,89.67 C123.940348,89.1177153 124.388063,88.67 124.940348,88.67 C125.492632,88.67 125.940348,89.1177153 125.940348,89.67 L125.940348,139.67 C125.940348,140.222285 125.492632,140.67 124.940348,140.67 Z" id="Path" stroke="#F0C500" stroke-width="1.5" fill="#F0C500"></path>
                <path d="M63.6903476,78.84 L63.6203476,78.84 C59.2152222,78.5303917 55.8627426,74.7609964 56.0692412,70.3498349 C56.2757398,65.9386734 59.9656977,62.4989539 64.3804822,62.6022298 C68.7952667,62.7055056 72.3203476,66.3140077 72.3203476,70.73 C72.3203476,70.9 72.3203476,71.06 72.3203476,71.23 C72.2829139,71.7787653 71.8093191,72.1942777 71.2603476,72.16 C70.7118288,72.1330074 70.2877166,71.6687161 70.3103476,71.12 C70.3103476,71 70.3103476,70.87 70.3103476,70.75 C70.3134012,67.4128332 67.6504451,64.6842472 64.3141928,64.606067 C60.9779404,64.5278867 58.1900966,67.128741 58.0368293,70.4623878 C57.8835619,73.7960346 60.4209961,76.6417233 63.7503476,76.87 C64.3026324,76.88933 64.7346776,77.3527153 64.7153476,77.905 C64.6960176,78.4572847 64.2326324,78.8893299 63.6803476,78.87 L63.6903476,78.84 Z" id="Path" stroke="#F0C500" stroke-width="1.5" fill="#F0C500"></path>
                <path d="M63.7403476,97.12 L63.6803476,97.12 C59.2575084,96.8478121 55.8648836,93.0878309 56.047245,88.6603783 C56.2296064,84.2329256 59.9199528,80.7646833 64.3501948,80.857143 C68.7804368,80.9496027 72.3228676,84.568794 72.320349,89 C72.320349,89.16 72.320349,89.33 72.320349,89.5 C72.2844491,90.0522847 71.8076324,90.4708985 71.2553476,90.435 C70.7030629,90.3991015 70.2844492,89.9222847 70.3203476,89.37 C70.3203476,89.25 70.3203476,89.12 70.3203476,89 C70.3248279,85.6573015 67.6545051,82.9251799 64.3125787,82.8531945 C60.9706524,82.7812091 58.1851606,85.3958118 58.0456993,88.7356028 C57.906238,92.0753938 60.4640542,94.9131197 63.8003476,95.12 C64.3526324,95.1365686 64.7869161,95.5977153 64.7703476,96.15 C64.7537791,96.7022847 64.2926324,97.1365685 63.7403476,97.12 L63.7403476,97.12 Z" id="Path" stroke="#F0C500" stroke-width="1.5" fill="#F0C500"></path>
                <path d="M63.7603476,115.470002 L63.7003476,115.470002 C59.2826305,115.203256 55.8898324,111.451815 56.0668551,107.029594 C56.2438778,102.607373 59.9256817,99.1391307 64.350585,99.226359 C68.7754882,99.3135874 72.3177456,102.924238 72.3203476,107.35 C72.3203476,107.52 72.3203476,107.68 72.3203476,107.85 C72.2989117,108.207266 72.0885052,108.525957 71.7683861,108.686025 C71.4482671,108.846094 71.0670692,108.823222 70.7683861,108.626025 C70.469703,108.428829 70.2989117,108.087266 70.3203476,107.73 C70.3203476,107.6 70.3203476,107.48 70.3203476,107.35 C70.3254894,104.004548 67.6514555,101.270709 64.3067084,101.201863 C60.9619613,101.133018 58.1776981,103.754509 58.0451742,107.097339 C57.9126503,110.440168 60.4806476,113.273846 63.8203476,113.47 C64.0857389,113.485444 64.3340583,113.605925 64.5104399,113.804824 C64.6868215,114.003722 64.7767471,114.264666 64.7603476,114.53 C64.7285678,115.058724 64.2900249,115.470954 63.7603476,115.470002 L63.7603476,115.470002 Z" id="Path" stroke="#F0C500" stroke-width="1.5" fill="#F0C500"></path>
                <path d="M63.7203476,133.78 L63.6603476,133.78 C59.2495082,133.49184 55.8770715,129.732368 56.0679334,125.316248 C56.2587952,120.900129 59.9430147,117.445641 64.3622685,117.539112 C68.7815223,117.632583 72.3163819,121.23976 72.3203476,125.66 C72.3203476,125.83 72.3203476,126 72.3203476,126.16 C72.3049035,126.425391 72.1844222,126.673711 71.9855238,126.850092 C71.7866254,127.026474 71.5256816,127.116399 71.2603476,127.1 C70.7115824,127.062566 70.2960699,126.588971 70.3303476,126.04 C70.3303476,125.92 70.3303476,125.79 70.3303476,125.66 C70.3290429,122.319974 67.658122,119.593633 64.3188274,119.523743 C60.9795329,119.453853 58.1968787,122.066054 58.0558258,125.4031 C57.9147729,128.740146 60.4670664,131.577848 63.8003476,131.79 C64.3526324,131.80933 64.7846776,132.272715 64.7653476,132.825 C64.7460177,133.377285 64.2826324,133.80933 63.7303476,133.79 L63.7203476,133.78 Z" id="Path" stroke="#F0C500" stroke-width="1.5" fill="#F0C500"></path>
                <path d="M90.5003476,118.120017 C90.2345447,118.121537 89.9790665,118.017187 89.7903476,117.83 C89.5821893,117.622139 89.4761118,117.33317 89.5003476,117.04 L90.0503476,110.29 C90.0691051,110.04726 90.1757735,109.819701 90.3503476,109.65 L136.460348,64.25 C136.644282,64.0557047 136.902984,63.9500375 137.170348,63.96 C137.437594,63.9611094 137.693276,64.0691444 137.880348,64.26 L144.090348,70.58 C144.478071,70.9700375 144.478071,71.5999625 144.090348,71.99 L97.9703476,117.39 C97.7991164,117.5609 97.5717366,117.663931 97.3303476,117.68 L90.5703476,118.120017 L90.5003476,118.120017 Z M92.0203476,110.82 L91.5903476,116.05 L96.8303476,115.71 L141.970348,71.27 L137.150348,66.38 L92.0203476,110.82 Z" id="Shape" stroke="#F0C500" stroke-width="1.5" fill="#F0C500"></path>
                <path d="M138.380348,77.1700229 C138.113102,77.1688906 137.857419,77.0608556 137.670348,76.87 L131.480348,70.56 C131.082703,70.1678778 131.078226,69.527645 131.470348,69.13 C131.86247,68.732355 132.502703,68.7278779 132.900348,69.12 L139.120348,75.43 C139.30966,75.6177666 139.416146,75.8733625 139.416146,76.14 C139.416146,76.4066375 139.30966,76.6622334 139.120348,76.85 C138.929513,77.0557808 138.66099,77.1718991 138.380348,77.1700229 Z" id="Path" stroke="#F0C500" stroke-width="1.5" fill="#F0C500"></path>
            </g>
            <g id="noun_Notebook_1911659" transform="translate(56.040225, 54.500000)"></g>
        </g>
    </g>
</svg>