<?xml version="1.0" encoding="UTF-8"?>
<svg width="194px" height="192px" viewBox="0 0 194 192" version="1.1" xmlns="http://www.w3.org/2000/svg" xmlns:xlink="http://www.w3.org/1999/xlink">
    <title>4</title>
    <g id="WIRES-V9" stroke="none" stroke-width="1" fill="none" fill-rule="evenodd">
        <g id="4" transform="translate(0.351769, -0.002615)" fill-rule="nonzero">
            <circle id="Oval" fill="#E3FFF3" cx="96.9282308" cy="96.0026154" r="96"></circle>
            <path d="M137.652,112.752846 C146.920923,112.752846 154.461077,105.211385 154.461077,95.9437692 C154.461077,86.6761538 146.920923,79.1333846 137.652,79.1333846 C136.19,79.1333846 134.777692,79.3413077 133.424231,79.6930769 L131.547692,77.062 C137.314615,74.3956154 141.334462,68.5698462 141.334462,61.8090769 C141.334462,52.5401538 133.794308,45 124.526692,45 C117.227154,45 111.016923,49.6854615 108.699692,56.1990769 L108.699692,56.1676923 L91.1033846,56.1676923 C88.777,49.6697692 82.5759231,45 75.2894615,45 C66.0218462,45 58.4803846,52.5401538 58.4803846,61.8090769 C58.4803846,66.7155385 60.6066923,71.1250769 63.9713846,74.1994615 L60.2156923,79.7950769 C58.7445385,79.3726923 57.1949231,79.1320769 55.5890769,79.1320769 C46.3214615,79.1320769 38.78,86.6722308 38.78,95.9411538 C38.78,105.210077 46.3201538,112.750231 55.5890769,112.750231 C57.5087692,112.750231 59.3460769,112.410231 61.0656923,111.816538 L64.586,117.243462 C60.8603846,120.328308 58.4816923,124.987615 58.4816923,130.192231 C58.4816923,139.461154 66.0218462,147.001308 75.2907692,147.001308 C83.1905385,147.001308 89.8153077,141.518154 91.6068462,134.162385 L91.6068462,134.197692 L108.219769,134.197692 C110.024385,141.535154 116.64,147.001308 124.528,147.001308 C133.795615,147.001308 141.335769,139.461154 141.335769,130.192231 C141.335769,123.011692 136.800692,116.883846 130.453154,114.480308 L132.300923,111.859692 C133.982615,112.431154 135.779385,112.752846 137.652,112.752846 Z M124.528,47.6166923 C132.353231,47.6166923 138.720385,53.9838462 138.720385,61.8103846 C138.720385,66.5063077 136.418846,70.6647692 132.894615,73.2500769 C132.423846,68.8928462 128.727,65.4902308 124.249462,65.4902308 C119.901385,65.4902308 116.298692,68.7019231 115.660538,72.8747692 C112.418769,70.2711538 110.335615,66.2813846 110.335615,61.8103846 C110.333,53.9838462 116.700154,47.6166923 124.528,47.6166923 Z M130.334154,74.7473846 C128.559615,75.5476923 126.598077,76.0027692 124.528,76.0027692 C122.238231,76.0027692 120.081846,75.4456923 118.164769,74.478 L118.164769,74.1903077 C118.164769,70.8347692 120.893923,68.1043077 124.248154,68.1043077 C127.602385,68.1043077 130.331538,70.8347692 130.331538,74.1903077 L130.331538,74.7316923 C130.331538,74.7369231 130.334154,74.7421538 130.334154,74.7473846 Z M61.0957692,61.8103846 C61.0957692,53.9838462 67.4629231,47.6166923 75.2894615,47.6166923 C83.116,47.6166923 89.4831538,53.9838462 89.4831538,61.8103846 C89.4831538,66.5573077 87.1332308,70.7563077 83.5436154,73.3350769 C83.1630769,68.8863077 79.427,65.3803846 74.8814615,65.3803846 C70.5281538,65.3803846 66.9228462,68.5973077 66.2912308,72.778 C63.1213846,70.1717692 61.0957692,66.2238462 61.0957692,61.8103846 Z M81.0001538,74.7944615 C79.2504615,75.5673077 77.3216154,76.0040769 75.2894615,76.0040769 C72.9486923,76.0040769 70.7452308,75.4247692 68.7980769,74.4178462 L68.7980769,74.0804615 C68.7980769,70.7249231 71.5272308,67.9957692 74.8814615,67.9957692 C78.2356923,67.9957692 80.9648462,70.7249231 80.9648462,74.0804615 L80.9648462,74.6218462 C80.9648462,74.682 80.9923077,74.7343077 81.0001538,74.7944615 Z M46.6483846,106.953231 C43.4471538,104.348308 41.3953846,100.382077 41.3953846,95.9424615 C41.3953846,88.1159231 47.7625385,81.7487692 55.5890769,81.7487692 C63.4156154,81.7487692 69.7827692,88.1159231 69.7827692,95.9424615 C69.7827692,100.650154 67.4694615,104.817769 63.9308462,107.401769 C63.583,102.920308 59.8338462,99.3790769 55.2660769,99.3790769 C50.8513077,99.3790769 47.2028462,102.686231 46.6483846,106.953231 Z M55.5890769,110.137462 C53.2823077,110.137462 51.1089231,109.572538 49.1826923,108.591769 L49.1826923,108.079154 C49.1826923,104.724923 51.9118462,101.994462 55.2660769,101.994462 C58.6203077,101.994462 61.3494615,104.724923 61.3494615,108.079154 L61.3494615,108.620538 C61.3494615,108.710769 61.3834615,108.791846 61.4017692,108.876846 C59.6246154,109.679769 57.6617692,110.137462 55.5890769,110.137462 Z M75.2894615,144.388538 C72.9369231,144.388538 70.7203846,143.804 68.7640769,142.785308 C68.7719231,142.729077 68.7967692,142.679385 68.7967692,142.620538 L68.7967692,142.079154 C68.7967692,138.724923 71.5259231,135.994462 74.8801538,135.994462 C78.2343846,135.994462 80.9635385,138.724923 80.9635385,142.079154 L80.9635385,142.620538 C80.9635385,142.807538 81.0040769,142.981462 81.0746923,143.141 C79.3066923,143.936077 77.3516923,144.388538 75.2894615,144.388538 Z M83.5619231,141.705154 C83.3644615,137.081154 79.5525385,133.379077 74.8814615,133.379077 C70.4104615,133.379077 66.7188462,136.771231 66.2389231,141.118 C63.1004615,138.513077 61.0970769,134.583462 61.0970769,130.194846 C61.0970769,122.368308 67.4642308,116.001154 75.2907692,116.001154 C83.1173077,116.001154 89.4844615,122.368308 89.4844615,130.194846 C89.4831538,134.933923 87.1397692,139.126385 83.5619231,141.705154 Z M107.788231,131.584923 L92.0279231,131.584923 C92.0658462,131.124615 92.0985385,130.664308 92.0985385,130.194846 C92.0985385,120.925923 84.5583846,113.385769 75.2894615,113.385769 C72.1601538,113.385769 69.2400769,114.260615 66.728,115.756615 L63.3580769,110.834462 C68.7235385,108.025538 72.3981538,102.409 72.3981538,95.9424615 C72.3981538,89.2287692 68.4319231,83.437 62.7277692,80.7470769 L66.031,75.8249231 C68.6882308,77.5863846 71.8685385,78.6181538 75.2894615,78.6181538 C84.5570769,78.6181538 92.0985385,71.078 92.0985385,61.8090769 C92.0985385,60.7746923 91.99,59.7651538 91.8108462,58.7830769 L108.005308,58.7830769 C107.824846,59.7664615 107.717615,60.7746923 107.717615,61.8090769 C107.717615,71.0766923 115.259077,78.6181538 124.526692,78.6181538 C126.068462,78.6181538 127.554,78.3919231 128.972846,78.0022308 L130.836308,80.5901538 C124.956923,83.2107692 120.840308,89.1006154 120.840308,95.9424615 C120.840308,102.392 124.495308,107.995462 129.838538,110.813538 L127.794615,113.710077 C126.735385,113.500846 125.643462,113.385769 124.525385,113.385769 C115.256462,113.385769 107.716308,120.927231 107.716308,130.194846 C107.717615,130.664308 107.751615,131.124615 107.788231,131.584923 Z M124.528,144.388538 C122.337615,144.388538 120.270154,143.874615 118.415846,142.986692 C118.451154,142.867692 118.490385,142.75 118.490385,142.621846 L118.490385,142.080462 C118.490385,138.726231 121.219538,135.995769 124.573769,135.995769 C127.928,135.995769 130.657154,138.726231 130.657154,142.080462 L130.657154,142.621846 C130.657154,142.736923 130.693769,142.840231 130.722538,142.946154 C128.848615,143.860231 126.751077,144.388538 124.528,144.388538 Z M138.719077,130.194846 C138.719077,134.737769 136.566615,138.777231 133.237231,141.376923 C132.877615,136.907231 129.132385,133.379077 124.573769,133.379077 C119.991615,133.379077 116.233308,136.943846 115.906385,141.444923 C112.526,138.847846 110.333,134.777 110.333,130.194846 C110.333,122.368308 116.700154,116.001154 124.526692,116.001154 C132.353231,116.001154 138.719077,122.368308 138.719077,130.194846 Z M129.000308,107.169 C125.636923,104.571923 123.458308,100.511538 123.458308,95.9424615 C123.458308,88.1159231 129.825462,81.7487692 137.652,81.7487692 C145.477231,81.7487692 151.845692,88.1159231 151.845692,95.9424615 C151.845692,100.511538 149.665769,104.573231 146.302385,107.170308 C145.846,102.798692 142.141308,99.3790769 137.652,99.3790769 C133.161385,99.3790769 129.455385,102.797385 129.000308,107.169 Z M131.567308,108.620538 L131.567308,108.079154 C131.567308,104.724923 134.296462,101.994462 137.650692,101.994462 C141.004923,101.994462 143.734077,104.724923 143.734077,108.079154 L143.734077,108.620538 C143.734077,108.661077 143.753692,108.696385 143.757615,108.736923 C141.905923,109.624846 139.839769,110.136154 137.652,110.136154 C135.462923,110.136154 133.396769,109.623538 131.543769,108.735615 C131.547692,108.696385 131.567308,108.662385 131.567308,108.620538 Z" id="Shape" stroke="#00C674" stroke-width="0.5" fill="#00C674"></path>
            <path d="M113.334154,111.378462 C113.334154,103.032769 106.547231,96.2432308 98.2054615,96.2432308 C89.8610769,96.2432308 83.0728462,103.032769 83.0728462,111.378462 C83.0728462,112.101615 83.6586923,112.686154 84.3805385,112.686154 L112.026462,112.686154 C112.749615,112.686154 113.334154,112.101615 113.334154,111.378462 Z M85.7562308,110.070769 C86.4113846,103.779462 91.7454615,98.8586154 98.2054615,98.8586154 C104.664154,98.8586154 109.996923,103.780769 110.652077,110.070769 L85.7562308,110.070769 Z" id="Shape" stroke="#00C674" stroke-width="0.5" fill="#00C674"></path>
            <path d="M98.2054615,93.6383077 C104.131923,93.6383077 108.953385,88.8155385 108.953385,82.8877692 C108.953385,76.9613077 104.131923,72.1398462 98.2054615,72.1398462 C92.279,72.1398462 87.4575385,76.9613077 87.4575385,82.8877692 C87.4575385,88.8155385 92.279,93.6383077 98.2054615,93.6383077 Z M98.2054615,74.7552308 C102.689538,74.7552308 106.338,78.4036923 106.338,82.8877692 C106.338,87.3731538 102.689538,91.0229231 98.2054615,91.0229231 C93.7213846,91.0229231 90.0729231,87.3731538 90.0729231,82.8877692 C90.0729231,78.4036923 93.7213846,74.7552308 98.2054615,74.7552308 Z" id="Shape" stroke="#00C674" stroke-width="0.5" fill="#00C674"></path>
            <path d="M124.248154,63.9981538 C127.752769,63.9981538 130.603538,61.1460769 130.603538,57.6401538 C130.603538,54.1355385 127.751462,51.2834615 124.248154,51.2834615 C120.744846,51.2834615 117.892769,54.1355385 117.892769,57.6401538 C117.892769,61.1460769 120.743538,63.9981538 124.248154,63.9981538 Z M124.248154,53.8988462 C126.310385,53.8988462 127.988154,55.5766154 127.988154,57.6401538 C127.988154,59.7036923 126.310385,61.3827692 124.248154,61.3827692 C122.185923,61.3827692 120.508154,59.7036923 120.508154,57.6401538 C120.508154,55.5766154 122.185923,53.8988462 124.248154,53.8988462 Z" id="Shape" stroke="#00C674" stroke-width="0.5" fill="#00C674"></path>
            <path d="M144.006077,91.529 C144.006077,88.0243846 141.154,85.1723077 137.650692,85.1723077 C134.147385,85.1723077 131.295308,88.0243846 131.295308,91.529 C131.295308,95.0349231 134.147385,97.887 137.650692,97.887 C141.154,97.887 144.006077,95.0349231 144.006077,91.529 Z M133.910692,91.529 C133.910692,89.4654615 135.588462,87.7876923 137.650692,87.7876923 C139.712923,87.7876923 141.390692,89.4654615 141.390692,91.529 C141.390692,93.5925385 139.712923,95.2716154 137.650692,95.2716154 C135.588462,95.2716154 133.910692,93.5925385 133.910692,91.529 Z" id="Shape" stroke="#00C674" stroke-width="0.5" fill="#00C674"></path>
            <path d="M61.6214615,91.529 C61.6214615,88.0243846 58.7706923,85.1723077 55.2660769,85.1723077 C51.7614615,85.1723077 48.9106923,88.0243846 48.9106923,91.529 C48.9106923,95.0349231 51.7614615,97.887 55.2660769,97.887 C58.7706923,97.887 61.6214615,95.0349231 61.6214615,91.529 Z M51.5260769,91.529 C51.5260769,89.4654615 53.2038462,87.7876923 55.2660769,87.7876923 C57.3283077,87.7876923 59.0060769,89.4654615 59.0060769,91.529 C59.0060769,93.5925385 57.3283077,95.2716154 55.2660769,95.2716154 C53.2038462,95.2716154 51.5260769,93.5925385 51.5260769,91.529 Z" id="Shape" stroke="#00C674" stroke-width="0.5" fill="#00C674"></path>
            <path d="M74.8814615,63.887 C78.3860769,63.887 81.2368462,61.0349231 81.2368462,57.529 C81.2368462,54.0243846 78.3860769,51.1723077 74.8814615,51.1723077 C71.3768462,51.1723077 68.5260769,54.0243846 68.5260769,57.529 C68.5260769,61.0349231 71.3768462,63.887 74.8814615,63.887 Z M74.8814615,53.7876923 C76.9436923,53.7876923 78.6214615,55.4654615 78.6214615,57.529 C78.6214615,59.5925385 76.9436923,61.2716154 74.8814615,61.2716154 C72.8192308,61.2716154 71.1414615,59.5925385 71.1414615,57.529 C71.1414615,55.4654615 72.8192308,53.7876923 74.8814615,53.7876923 Z" id="Shape" stroke="#00C674" stroke-width="0.5" fill="#00C674"></path>
            <path d="M74.8814615,119.173615 C71.3768462,119.173615 68.5260769,122.025692 68.5260769,125.529 C68.5260769,129.034923 71.3768462,131.887 74.8814615,131.887 C78.3860769,131.887 81.2368462,129.033615 81.2368462,125.529 C81.2368462,122.024385 78.3860769,119.173615 74.8814615,119.173615 Z M74.8814615,129.271615 C72.8192308,129.271615 71.1414615,127.592538 71.1414615,125.529 C71.1414615,123.466769 72.8192308,121.789 74.8814615,121.789 C76.9436923,121.789 78.6214615,123.466769 78.6214615,125.529 C78.6214615,127.592538 76.9436923,129.271615 74.8814615,129.271615 Z" id="Shape" stroke="#00C674" stroke-width="0.5" fill="#00C674"></path>
            <path d="M118.218385,125.529 C118.218385,129.034923 121.070462,131.887 124.573769,131.887 C128.077077,131.887 130.929154,129.033615 130.929154,125.529 C130.929154,122.024385 128.077077,119.173615 124.573769,119.173615 C121.070462,119.173615 118.218385,122.024385 118.218385,125.529 Z M124.573769,121.789 C126.636,121.789 128.313769,123.466769 128.313769,125.529 C128.313769,127.592538 126.636,129.271615 124.573769,129.271615 C122.511538,129.271615 120.833769,127.592538 120.833769,125.529 C120.833769,123.466769 122.511538,121.789 124.573769,121.789 Z" id="Shape" stroke="#00C674" stroke-width="0.5" fill="#00C674"></path>
        </g>
    </g>
</svg>