<?xml version="1.0" encoding="UTF-8"?>
<svg width="193px" height="192px" viewBox="0 0 193 192" version="1.1" xmlns="http://www.w3.org/2000/svg" xmlns:xlink="http://www.w3.org/1999/xlink">
    <title>5</title>
    <g id="WIRES-V9" stroke="none" stroke-width="1" fill="none" fill-rule="evenodd">
        <g id="5" fill-rule="nonzero">
            <circle id="Oval" fill="#E3EFFF" cx="96.28" cy="96" r="96"></circle>
            <path d="M97.6207632,73.7320391 C94.1652196,73.7320391 90.9060138,75.0082342 88.412525,77.2661177 C85.9190362,75.0082342 82.6598304,73.7320391 79.2042868,73.7320391 C71.6060178,73.7320391 65.4213802,79.9166767 65.4213802,87.5149457 C65.4213802,98.2546179 84.4661372,114.334676 86.6454857,116.140982 L86.7829221,116.239151 C87.7449768,117.024502 89.1193407,117.024502 90.0813955,116.219518 L90.1991981,116.121349 C92.3785466,114.295408 111.40367,97.9797452 111.40367,87.5149457 C111.40367,79.9166767 105.219032,73.7320391 97.6207632,73.7320391 Z M88.3928912,110.368654 C81.0105937,103.909144 70.9581034,93.1891053 70.9581034,87.5345795 C70.9581034,82.7243058 75.1008289,78.8564531 80.0289052,79.3276636 C82.6009291,79.5829026 84.8588126,81.1143367 86.2724441,83.2740514 L86.2724441,83.2740514 C87.2934001,84.8251192 89.5512837,84.8251192 90.5722397,83.2740514 C91.9858712,81.1143367 94.2437547,79.5829026 96.8157786,79.3276636 C101.724221,78.8564531 105.88658,82.704672 105.88658,87.5345795 C105.847313,93.0320351 95.7948226,103.810975 88.3928912,110.368654 Z" id="Shape" fill="#2E7FE9"></path>
            <path d="M92.1625751,57.5734463 C90.631141,57.5734463 89.3942135,58.8103738 89.3942135,60.3418079 C89.3942135,61.873242 90.631141,63.1101695 92.1625751,63.1101695 C107.339479,63.1101695 119.689121,75.4598109 119.689121,90.6367152 C119.689121,92.1681492 120.926048,93.4050767 122.457482,93.4050767 C123.988916,93.4050767 125.225844,92.1681492 125.225844,90.6367152 C125.225844,72.4165765 110.402347,57.5734463 92.1625751,57.5734463 Z" id="Path" fill="#2E7FE9"></path>
            <path d="M145.762767,129.629383 L129.820146,113.686761 C133.943238,106.972012 136.318924,99.0988701 136.318924,90.6563489 C136.318924,66.310474 116.50845,46.5 92.1625751,46.5 C67.8167002,46.5 48.0062262,66.310474 48.0062262,90.6563489 C48.0062262,115.002224 67.8167002,134.812698 92.1625751,134.812698 C100.605096,134.812698 108.478238,132.437012 115.192987,128.31392 L131.135609,144.256541 C134.06104,146.9071 138.144865,146.9071 140.77579,144.256541 L145.762767,139.269564 C148.413326,136.599371 148.413326,132.279941 145.762767,129.629383 Z M92.1625751,129.256341 C70.8795683,129.256341 53.5429493,111.939356 53.5429493,90.6367152 C53.5429493,69.3340746 70.8599345,52.0367232 92.1625751,52.0367232 C113.445582,52.0367232 130.782201,69.3537084 130.782201,90.6563489 C130.782201,111.958989 113.445582,129.256341 92.1625751,129.256341 Z M141.836013,135.34281 L136.849036,140.329787 C136.358192,140.820631 135.553207,140.820631 135.042729,140.329787 L119.767656,125.054714 C122.261145,123.05207 124.538662,120.774552 126.56094,118.26143 L141.836013,133.536503 C142.326858,134.046981 142.326858,134.851965 141.836013,135.34281 Z" id="Shape" fill="#2E7FE9"></path>
        </g>
    </g>
</svg>