<?xml version="1.0" encoding="UTF-8"?>
<svg width="193px" height="193px" viewBox="0 0 193 193" version="1.1" xmlns="http://www.w3.org/2000/svg" xmlns:xlink="http://www.w3.org/1999/xlink">
    <title>6</title>
    <g id="WIRES-V9" stroke="none" stroke-width="1" fill="none" fill-rule="evenodd">
        <g id="6" transform="translate(-0.000000, 0.000000)" fill-rule="nonzero">
            <circle id="Oval" fill="#E4E1FF" cx="96.2800001" cy="96.5" r="96"></circle>
            <path d="M130.246207,83.08 L73.4186208,83.08 L73.4186208,70.72 C73.4186208,59.3429342 83.5956516,50.12 96.1496552,50.12 C108.703659,50.12 118.88069,59.3429342 118.88069,70.72 C118.88069,71.8577066 119.898393,72.78 121.153793,72.78 C122.409194,72.78 123.426897,71.8577066 123.426897,70.72 C123.426897,57.067521 111.21446,46 96.1496552,46 C81.0848508,46 68.8724139,57.067521 68.8724139,70.72 L68.8724139,83.08 L62.0531035,83.08 C61.4501909,83.0798579 60.8719271,83.2968473 60.4456035,83.6832031 C60.0192799,84.0695588 59.78,84.5936105 59.78,85.14 L59.78,116.04 C59.78,134.243305 76.0632493,149 96.1496552,149 C116.236061,149 132.51931,134.243305 132.51931,116.04 L132.51931,85.14 C132.51931,84.5936105 132.280031,84.0695588 131.853707,83.6832031 C131.427383,83.2968473 130.84912,83.0798579 130.246207,83.08 Z M127.973104,116.04 C127.973104,131.967892 113.72526,144.88 96.1496552,144.88 C78.5740501,144.88 64.326207,131.967892 64.326207,116.04 L64.326207,87.2 L127.973104,87.2 L127.973104,116.04 Z" id="Shape" stroke="#4136E4" fill="#4136E4"></path>
            <path d="M93.8765517,138.7 C93.8765517,139.24639 94.1158316,139.770441 94.5421552,140.156797 C94.9684788,140.543153 95.5467427,140.76 96.1496552,140.76 C111.207485,140.744753 123.410073,129.686159 123.426897,116.04 C123.426897,114.902293 122.409194,113.98 121.153793,113.98 C119.898393,113.98 118.88069,114.902293 118.88069,116.04 C118.866334,127.411673 108.697708,136.62699 96.1496552,136.64 C95.5467427,136.639858 94.9684788,136.856847 94.5421552,137.243203 C94.1158316,137.629559 93.8765517,138.15361 93.8765517,138.7 L93.8765517,138.7 Z" id="Path" stroke="#4136E4" fill="#4136E4"></path>
            <path d="M89.3303449,120.16 C89.3303449,123.57312 92.3834541,126.34 96.1496552,126.34 C99.9158564,126.34 102.968966,123.57312 102.968966,120.16 L102.968966,115.277553 C106.192745,111.964826 105.960871,106.937673 102.443275,103.88032 C98.9256788,100.822967 93.3736317,100.822967 89.8560358,103.88032 C86.3384398,106.937673 86.1065653,111.964826 89.3303449,115.277553 L89.3303449,120.16 Z M100.695862,109.86 C100.694728,111.026661 100.140001,112.136531 99.1730647,112.90674 C98.6954146,113.297566 98.4227916,113.853461 98.4227587,114.436661 L98.4227587,120.16 C98.4227587,121.297707 97.4050556,122.22 96.1496552,122.22 C94.8942549,122.22 93.8765518,121.297707 93.8765518,120.16 L93.8765518,114.436661 C93.8765189,113.853461 93.6038959,113.297566 93.1262458,112.90674 C92.1593096,112.136531 91.6045829,111.026661 91.6034484,109.86 C91.6034484,107.584587 93.6388545,105.74 96.1496552,105.74 C98.660456,105.74 100.695862,107.584587 100.695862,109.86 L100.695862,109.86 Z" id="Shape" stroke="#4136E4" fill="#4136E4"></path>
        </g>
    </g>
</svg>