<svg width="34" height="34" viewBox="0 0 34 34" fill="none" xmlns="http://www.w3.org/2000/svg">
<circle cx="17" cy="17" r="17" fill="#16354C"/>
<path d="M16.6434 8.64199C16.1494 9.13795 16.1494 9.94209 16.6434 10.438L21.8571 15.6702H8.15764C7.45863 15.6702 6.89209 16.239 6.89209 16.9402C6.89209 17.6416 7.45863 18.2102 8.15764 18.2102H21.8629L16.5302 23.5618C16.0362 24.0577 16.0362 24.8619 16.5302 25.3578C17.0245 25.8537 17.8256 25.8537 18.3198 25.3578L25.5749 18.0768C25.6124 18.0392 25.6463 17.9992 25.6778 17.9583C25.9878 17.7272 26.1894 17.3577 26.1894 16.9404C26.1894 16.5359 26.0003 16.1762 25.7064 15.9438C25.7001 15.9368 25.6945 15.9297 25.6878 15.923L18.4326 8.64221C17.9389 8.14632 17.1374 8.14632 16.6434 8.64199Z" fill="white"/>
</svg>
