<svg width="84" height="84" viewBox="0 0 84 84" fill="none" xmlns="http://www.w3.org/2000/svg">
<g filter="url(#filter0_d)">
<path fill-rule="evenodd" clip-rule="evenodd" d="M42 82C64.0914 82 82 64.0914 82 42C82 19.9086 64.0914 2 42 2C19.9086 2 2 19.9086 2 42C2 64.0914 19.9086 82 42 82Z" fill="url(#paint0_linear)"/>
</g>
<path d="M42.0455 27.7608C44.4821 27.7608 46.4573 25.7856 46.4573 23.349C46.4573 20.9125 44.4821 18.9373 42.0455 18.9373C39.609 18.9373 37.6338 20.9125 37.6338 23.349C37.6338 25.7856 39.609 27.7608 42.0455 27.7608Z" fill="white"/>
<path fill-rule="evenodd" clip-rule="evenodd" d="M39.7351 54.3345L30.3234 51.2625C29.4636 50.9819 28.8344 50.2423 28.6951 49.3486C28.5561 48.4551 28.9304 47.559 29.664 47.0304L36.7426 41.9284V37.0974C38.214 37.2658 39.9851 37.3515 42.0457 37.3515C44.1063 37.3515 45.8775 37.2658 47.3489 37.0974V63.0194C47.3489 64.3586 46.2632 65.4435 44.9244 65.4435C43.5859 65.4435 42.5002 64.3586 42.5002 63.0194V53.35C42.2565 53.7296 41.9142 54.0255 41.5198 54.2149C41.1993 54.369 40.8449 54.4537 40.4808 54.4537C40.2338 54.4537 39.9828 54.4153 39.7351 54.3345ZM41.5199 45.3192H40.2544L36.3093 48.1627L41.2258 49.7675C41.3281 49.801 41.4254 49.8427 41.5199 49.888C41.9307 50.0849 42.2658 50.3869 42.5003 50.752V45.3192H41.5199Z" fill="white"/>
<path fill-rule="evenodd" clip-rule="evenodd" d="M34.2539 36.2171C31.6113 35.5059 31.0566 34.1947 31.0566 33.2198C31.0566 31.4663 32.9741 30.1551 34.9976 29.4502C36.0917 29.0691 37.2166 28.8647 38.0864 28.8647C38.1525 28.8647 38.2174 28.87 38.2815 28.8781H45.8098C45.8737 28.8702 45.9386 28.8647 46.0049 28.8647C47.097 28.8647 48.5915 29.1863 49.9219 29.7767C51.6104 30.5261 53.0345 31.7089 53.0345 33.22C53.0345 34.1947 52.4798 35.5059 49.8372 36.2171C48.1041 36.6838 45.4827 36.9202 42.0457 36.9202C38.6086 36.9202 35.987 36.6838 34.2539 36.2171ZM36.7423 32.1857C36.5219 32.2408 36.3048 32.3061 36.095 32.3783C35.5187 32.5767 34.9995 32.8261 34.6358 33.0585C35.3927 33.3216 37.0381 33.6798 40.4768 33.7645V33.0643C40.4768 32.1981 41.1791 31.4957 42.0454 31.4957C42.9117 31.4957 43.614 32.1981 43.614 33.0643V33.7645C47.0526 33.6798 48.6981 33.3216 49.4548 33.0585C49.1072 32.8365 48.6174 32.5986 48.0715 32.4047C47.8385 32.322 47.5956 32.2477 47.3485 32.1857V33.0679C46.5362 33.1781 45.4609 33.2737 44.0454 33.3204V33.0641C44.0454 31.9614 43.1481 31.0641 42.0454 31.0641C40.9426 31.0641 40.0454 31.9614 40.0454 33.0641V33.3204C38.6299 33.2736 37.5546 33.1779 36.7423 33.0679V32.1857Z" fill="white"/>
<defs>
<filter id="filter0_d" x="0" y="0" width="84" height="84" filterUnits="userSpaceOnUse" color-interpolation-filters="sRGB">
<feFlood flood-opacity="0" result="BackgroundImageFix"/>
<feColorMatrix in="SourceAlpha" type="matrix" values="0 0 0 0 0 0 0 0 0 0 0 0 0 0 0 0 0 0 127 0"/>
<feOffset/>
<feGaussianBlur stdDeviation="1"/>
<feColorMatrix type="matrix" values="0 0 0 0 0.721569 0 0 0 0 0.45098 0 0 0 0 0.2 0 0 0 0.25 0"/>
<feBlend mode="normal" in2="BackgroundImageFix" result="effect1_dropShadow"/>
<feBlend mode="normal" in="SourceGraphic" in2="effect1_dropShadow" result="shape"/>
</filter>
<linearGradient id="paint0_linear" x1="122" y1="42" x2="42" y2="-38" gradientUnits="userSpaceOnUse">
<stop stop-color="#B87333"/>
<stop offset="0.514754" stop-color="#E6AB76"/>
<stop offset="1" stop-color="#DA985B"/>
</linearGradient>
</defs>
</svg>
