<svg width="84" height="84" viewBox="0 0 84 84" fill="none" xmlns="http://www.w3.org/2000/svg">
<g filter="url(#filter0_d)">
<path fill-rule="evenodd" clip-rule="evenodd" d="M42 82C64.0914 82 82 64.0914 82 42C82 19.9086 64.0914 2 42 2C19.9086 2 2 19.9086 2 42C2 64.0914 19.9086 82 42 82Z" fill="url(#paint0_linear)"/>
</g>
<path fill-rule="evenodd" clip-rule="evenodd" d="M26.0836 30.2235C28.3053 28.0018 31.2292 26.8918 34.1523 26.8918V26.8919C36.9949 26.8919 39.8025 28.0279 42.0001 30.1289C46.4575 25.8672 53.5341 25.8412 57.9164 30.2235C62.3599 34.667 62.36 41.9174 57.9164 46.3609L43.5159 60.7614C43.1145 61.1646 42.569 61.3912 42.0001 61.3912C41.4312 61.3912 40.8857 61.1646 40.4842 60.7614L26.0836 46.3609C21.6401 41.9174 21.6401 34.667 26.0836 30.2235ZM39.1892 33.2551C37.7792 31.8451 35.9686 31.1393 34.1521 31.1393C32.3357 31.1393 30.5093 31.8452 29.0993 33.2551C26.2794 36.075 26.2794 40.5092 29.0993 43.3292L41.9999 56.2296L54.8846 43.3292C57.7045 40.5093 57.7045 36.075 54.8846 33.2551C52.0646 30.4352 47.6304 30.4352 44.8105 33.2551L43.5157 34.5499C43.1143 34.953 42.5688 35.1796 41.9999 35.1796C41.431 35.1796 40.8855 34.953 40.4841 34.5499L39.1892 33.2551Z" fill="white"/>
<path fill-rule="evenodd" clip-rule="evenodd" d="M29.0871 31.9583C30.8895 30.1558 33.2616 29.2554 35.6331 29.2554V29.2554C37.9393 29.2554 40.2171 30.177 42 31.8816C45.6162 28.4241 51.3574 28.403 54.9128 31.9583C58.5178 35.5633 58.5179 41.4456 54.9128 45.0505L43.2298 56.7336C42.9041 57.0606 42.4615 57.2445 42 57.2445C41.5384 57.2445 41.0959 57.0606 40.7702 56.7336L29.0871 45.0505C25.482 41.4456 25.482 35.5633 29.0871 31.9583Z" fill="white"/>
<defs>
<filter id="filter0_d" x="0" y="0" width="84" height="84" filterUnits="userSpaceOnUse" color-interpolation-filters="sRGB">
<feFlood flood-opacity="0" result="BackgroundImageFix"/>
<feColorMatrix in="SourceAlpha" type="matrix" values="0 0 0 0 0 0 0 0 0 0 0 0 0 0 0 0 0 0 127 0"/>
<feOffset/>
<feGaussianBlur stdDeviation="1"/>
<feColorMatrix type="matrix" values="0 0 0 0 0.721569 0 0 0 0 0.45098 0 0 0 0 0.2 0 0 0 0.25 0"/>
<feBlend mode="normal" in2="BackgroundImageFix" result="effect1_dropShadow"/>
<feBlend mode="normal" in="SourceGraphic" in2="effect1_dropShadow" result="shape"/>
</filter>
<linearGradient id="paint0_linear" x1="122" y1="42" x2="42" y2="-38" gradientUnits="userSpaceOnUse">
<stop stop-color="#B87333"/>
<stop offset="0.514754" stop-color="#E6AB76"/>
<stop offset="1" stop-color="#DA985B"/>
</linearGradient>
</defs>
</svg>
